<?xml version="1.0" encoding="iso-8859-1"?>
<!-- Generator: Adobe Illustrator 16.0.0, SVG Export Plug-In . SVG Version: 6.00 Build 0)  -->
<!DOCTYPE svg PUBLIC "-//W3C//DTD SVG 1.1//EN" "http://www.w3.org/Graphics/SVG/1.1/DTD/svg11.dtd">
<svg version="1.1" id="&#x56FE;&#x5C42;_1" xmlns="http://www.w3.org/2000/svg" xmlns:xlink="http://www.w3.org/1999/xlink" x="0px"
	 y="0px" width="500px" height="500px" viewBox="0 0 500 500" style="enable-background:new 0 0 500 500;" xml:space="preserve">
<g id="XMLID_1_">
	<g>
		<path style="fill:#3E4298;" d="M289.05,231.18c4.931,27.709-21.68,28.75-41.97,30.73c-5.92,0.58-11.03-0.11-13.22,2.2l-2.52,0.069
			c-0.03,0.011-0.05,0.021-0.07,0.03c-2.59,0.771-10.39,3.99-17.86,8.26c-2.55-4.109-6.89-6.989-11.77-8.8
			c-1.65-6.85-6.13-13.19-7.69-20.19c-1.15-5.11-2.25-10.23-1.7-15.87c1.21-12.3,13.2-19.06,24.61-12.76
			c7.24,4,12.76,27.8,20.35,27.56c3.49-0.12,7.52-8.85,9.13-11.85c2.56-4.78,6.04-21.48,9.57-24.1c5.84-4.32,17.7,4.67,22.17,7.77
			C285.18,219.17,287.59,222.94,289.05,231.18z"/>
		<path style="fill:#6BB92D;" d="M214.71,275.08c2.81,7.28-3.11,25.74-13.34,19.35c-10.18-6.37,0.55-15.399,12.04-21.96
			C213.92,273.29,214.35,274.16,214.71,275.08z"/>
		<path style="fill:#6BB92D;" d="M201.64,263.67c0.57,2.39,0.8,4.83,0.44,7.39c-5.94,1.08-12.11-0.859-18.17-0.6
			c-0.23-2.9-0.23-5.97,0-8.89C189.13,260.87,195.78,261.49,201.64,263.67z"/>
	</g>
	<g>
		<path style="fill:none;stroke:#000000;stroke-width:5;stroke-linecap:round;stroke-linejoin:round;stroke-miterlimit:10;" d="
			M201.64,263.67c-1.65-6.85-6.13-13.19-7.69-20.19c-1.15-5.11-2.25-10.23-1.7-15.87c1.21-12.3,13.2-19.06,24.61-12.76
			c7.24,4,12.76,27.8,20.35,27.56c3.49-0.12,7.52-8.85,9.13-11.85c2.56-4.78,6.04-21.48,9.57-24.1c5.84-4.32,17.7,4.67,22.17,7.77
			c7.1,4.94,9.51,8.71,10.97,16.95c4.931,27.709-21.68,28.75-41.97,30.73c-5.92,0.58-11.03-0.11-13.22,2.2
			c-1.15,1.21-1.49,3.26-0.7,6.76c1.59,7.07,7.61,13.83,11.02,20.12c1.92-4.66,6.03-21.5,4.85-26.33"/>
		<path style="fill:none;stroke:#000000;stroke-width:5;stroke-linecap:round;stroke-linejoin:round;stroke-miterlimit:10;" d="
			M201.64,263.67c-5.86-2.18-12.51-2.8-17.73-2.1c-0.23,2.92-0.23,5.989,0,8.89c6.06-0.26,12.23,1.68,18.17,0.6
			C202.44,268.5,202.21,266.06,201.64,263.67z"/>
		<path style="fill:none;stroke:#000000;stroke-width:5;stroke-linecap:round;stroke-linejoin:round;stroke-miterlimit:10;" d="
			M213.41,272.47c-2.55-4.109-6.89-6.989-11.77-8.8"/>
		<path style="fill:none;stroke:#000000;stroke-width:5;stroke-linecap:round;stroke-linejoin:round;stroke-miterlimit:10;" d="
			M213.41,272.47c-11.49,6.561-22.22,15.59-12.04,21.96c10.23,6.391,16.15-12.069,13.34-19.35
			C214.35,274.16,213.92,273.29,213.41,272.47z"/>
		<path style="fill:none;stroke:#000000;stroke-width:5;stroke-linecap:round;stroke-linejoin:round;stroke-miterlimit:10;" d="
			M231.34,264.18c-0.03,0.011-0.05,0.021-0.07,0.03c-2.59,0.771-10.39,3.99-17.86,8.26"/>
	</g>
</g>
</svg>
