<?xml version="1.0" encoding="iso-8859-1"?>
<!-- Generator: Adobe Illustrator 16.0.0, SVG Export Plug-In . SVG Version: 6.00 Build 0)  -->
<!DOCTYPE svg PUBLIC "-//W3C//DTD SVG 1.1//EN" "http://www.w3.org/Graphics/SVG/1.1/DTD/svg11.dtd">
<svg version="1.1" xmlns="http://www.w3.org/2000/svg" xmlns:xlink="http://www.w3.org/1999/xlink" x="0px" y="0px"
	 width="385.711px" height="220.811px" viewBox="0 0 385.711 220.811" style="enable-background:new 0 0 385.711 220.811;"
	 xml:space="preserve">
<g id="&#x56FE;&#x5C42;_1">
	<g id="XMLID_1_">
		<g>
			<path style="fill:#3E4298;" d="M224.032,82.142c4.931,27.709-21.68,28.75-41.97,30.73c-5.92,0.58-11.03-0.11-13.22,2.2
				l-2.52,0.069c-0.03,0.011-0.05,0.021-0.07,0.03c-2.59,0.771-10.39,3.99-17.86,8.26c-2.55-4.109-6.89-6.989-11.77-8.8
				c-1.65-6.85-6.13-13.19-7.69-20.19c-1.15-5.11-2.25-10.23-1.7-15.87c1.21-12.3,13.2-19.06,24.61-12.76
				c7.24,4,12.76,27.8,20.35,27.56c3.49-0.12,7.52-8.85,9.13-11.85c2.56-4.78,6.04-21.48,9.57-24.1c5.84-4.32,17.7,4.67,22.17,7.77
				C220.162,70.132,222.572,73.902,224.032,82.142z"/>
			<path style="fill:#6BB92D;" d="M149.692,126.042c2.81,7.28-3.11,25.74-13.34,19.35c-10.18-6.37,0.55-15.399,12.04-21.96
				C148.902,124.252,149.333,125.122,149.692,126.042z"/>
			<path style="fill:#6BB92D;" d="M136.623,114.632c0.57,2.39,0.8,4.83,0.44,7.39c-5.94,1.08-12.11-0.859-18.17-0.6
				c-0.23-2.9-0.23-5.97,0-8.89C124.112,111.832,130.762,112.452,136.623,114.632z"/>
		</g>
		<g>
			<path style="fill:none;stroke:#000000;stroke-width:5;stroke-linecap:round;stroke-linejoin:round;stroke-miterlimit:10;" d="
				M136.623,114.632c-1.65-6.85-6.13-13.19-7.69-20.19c-1.15-5.11-2.25-10.23-1.7-15.87c1.21-12.3,13.2-19.06,24.61-12.76
				c7.24,4,12.76,27.8,20.35,27.56c3.49-0.12,7.52-8.85,9.13-11.85c2.56-4.78,6.04-21.48,9.57-24.1c5.84-4.32,17.7,4.67,22.17,7.77
				c7.1,4.94,9.51,8.71,10.97,16.95c4.931,27.709-21.68,28.75-41.97,30.73c-5.92,0.58-11.03-0.11-13.22,2.2
				c-1.15,1.21-1.49,3.26-0.7,6.76c1.59,7.07,7.61,13.83,11.02,20.12c1.92-4.66,6.03-21.5,4.85-26.33"/>
			<path style="fill:none;stroke:#000000;stroke-width:5;stroke-linecap:round;stroke-linejoin:round;stroke-miterlimit:10;" d="
				M136.623,114.632c-5.86-2.18-12.51-2.8-17.73-2.1c-0.23,2.92-0.23,5.989,0,8.89c6.06-0.26,12.23,1.68,18.17,0.6
				C137.422,119.462,137.192,117.021,136.623,114.632z"/>
			<path style="fill:none;stroke:#000000;stroke-width:5;stroke-linecap:round;stroke-linejoin:round;stroke-miterlimit:10;" d="
				M148.393,123.432c-2.55-4.109-6.89-6.989-11.77-8.8"/>
			<path style="fill:none;stroke:#000000;stroke-width:5;stroke-linecap:round;stroke-linejoin:round;stroke-miterlimit:10;" d="
				M148.393,123.432c-11.49,6.561-22.22,15.59-12.04,21.96c10.23,6.391,16.15-12.069,13.34-19.35
				C149.333,125.122,148.902,124.252,148.393,123.432z"/>
			<path style="fill:none;stroke:#000000;stroke-width:5;stroke-linecap:round;stroke-linejoin:round;stroke-miterlimit:10;" d="
				M166.322,115.142c-0.03,0.011-0.05,0.021-0.07,0.03c-2.59,0.771-10.39,3.99-17.86,8.26"/>
		</g>
	</g>
</g>
<g id="&#x56FE;&#x5C42;_2" style="opacity:0;">
	<path style="fill:none;stroke:#E60012;stroke-width:100;stroke-linecap:round;stroke-linejoin:round;stroke-miterlimit:10;" d="
		M106.897,64.775c24.33-3.504,48.832-7.637,73.042-11.903c23.512-4.144,47.637-2.503,71.458-2.503
		c-12.17,0-25.492-1.514-37.372,1.594c-12.445,3.256-24.946,8.347-37.434,12.052c-23.979,7.113-48.768,20.808-73.564,24.684
		c10.609,3.081,25.911-0.716,36.705-2.229c19.885-2.787,39.55-7.239,59.433-9.93c14.274-1.932,29.283-2.807,43.566-3.535
		c-10.953-0.533-22.954,2.889-33.742,5.082c-20.824,4.234-42.582,5.562-63.009,11.474c-11.005,3.185-22.41,6.557-33.055,10.847
		c29.357-0.473,57.677-2.697,86.755-6.881c13.714-1.973,27.07-4.782,40.861-4.016c-57.061,9.649-113.591,18.871-169.742,32.965
		c21.356,7.377,54.967-1.186,76.319-4.449c30.224-4.621,64.658-5.18,93.457-16.08c-28.927,5.098-57.641,10.632-86.409,16.546
		c-17.558,3.609-38.666,12.188-56.765,11.542c33.271,0.17,67.195-2.69,99.756-9.911c14.483-3.212,28.042-9.282,42.66-11.484
		c-41.441,7.873-88.54,7.875-126.379,27.115c15.823,4.591,37.696,1.06,53.761,1.036c11.83-0.018,41.298-3.934,51.236,2.203
		c-3.641,4.938-8.142,4.43-14.771,5.386c-20.169,2.91-40.05,7.115-60.167,10.357c-30.054,4.843-62.958,16.127-93.496,16.032
		c5.899,0.235,10.987-0.546,16.959-1.46c32.429-4.961,65.343-6,97.944-10.336c50.061-6.657,103.512-12.459,151.233-30.033
		c6.892-2.538,12.596-4.346,19.574-5.689"/>
</g>
</svg>
