<svg version="1.1" xmlns="http://www.w3.org/2000/svg" xmlns:xlink="http://www.w3.org/1999/xlink" x="0px" y="0px"
	 width="144.692px" height="133.313px" viewBox="0 0 144.692 133.313" style="enable-background:new 0 0 144.692 133.313;"
	 xml:space="preserve">

			<path style="fill:#BB5199;" d="M75.089,47.824l0.31-0.3c2.59-1.96,6.11-7.19,8.66-8.38c17.68-8.25,25.42,18.09,21.98,30.53
				c-1.42,5.09-4.6,5.62-8.92,8.5c-3.71,2.49-9.17,5.03-12.29,7.98c-2.56,2.41-2.99,5.21-5.34,8.06c-5.74,6.94-7.12-2.74-11.39-7.12
				c-3.02-3.09-6.61-3.92-10.07-6.21c-8.06-5.34-14.6-13.88-14.56-23.8c0.03-9.41,4.13-19.1,14.48-20.46
				C66.899,35.435,69.889,42.094,75.089,47.824z"/>

			<path style="fill:none;stroke:#000000;stroke-width:2;stroke-linecap:round;stroke-linejoin:round;stroke-miterlimit:10;" d="
				M76.069,48.864c-0.34-0.34-0.66-0.69-0.98-1.04c-5.2-5.73-8.19-12.39-17.14-11.2c-10.35,1.36-14.45,11.05-14.48,20.46
				c-0.04,9.92,6.5,18.46,14.56,23.8c3.46,2.29,7.05,3.12,10.07,6.21c4.27,4.38,5.65,14.06,11.39,7.12
				c2.35-2.85,2.78-5.65,5.34-8.06c3.12-2.95,8.58-5.49,12.29-7.98c4.32-2.88,7.5-3.41,8.92-8.5c3.44-12.44-4.3-38.78-21.98-30.53
				c-2.55,1.19-6.07,6.42-8.66,8.38"/>

	<path style="fill:none;stroke:#000000;stroke-width:60;stroke-linecap:round;stroke-linejoin:round;stroke-miterlimit:10;" d="
		M90.069,30.194c-12.255-0.418-34.783-1.035-43.28,8.551c21.152,1.118,43.017-8.371,63.884-5.815
		c0.748,4.174-24.448,12.238-28.917,14.15c-8.268,3.538-18.02,5.698-26.32,8.463c-5.294,1.763-10.341,2.494-16.077,1.716
		c14.391-13.134,43.143-20.614,62.555-18.361c-8.468,4.526-15.14,11.061-24.545,14.042C66.625,56.347,54.98,58.202,44.6,62.42
		c12.143,4.146,32.565-7.999,44.467-11.933c4.109-1.358,8.543-3.009,12.338-4.166c-5.776,0.612-14.583,7.764-20.023,10.311
		C64.78,64.406,46.659,67.324,30,74.73c14.403,1.647,33.706-11.038,46.867-16.081c10.313-3.951,21.466-5.985,31.834-9.139
		c-2.462,9.726-12.052,13.815-20.46,17.663c-7.02,3.212-14.003,6.802-21.149,9.72c-3.719,1.519-8.811,1.949-11.558,5.089
		c8.432,2.377,16.899-6.292,24.081-9.26c7.465-3.085,15.794-3.366,22.912-7.35c-8.096,0.913-17.165,5.59-24.394,9.12
		c-6.781,3.312-17.191,7.231-22.456,12.464c8.158,2.887,18.47-2.846,26.2-5.524c10.084-3.494,23.56-5.153,32.815-10.308
		c-8.985,7.306-23.016,12.656-33.688,17.515c-5.476,2.493-14.852,4.648-19.016,8.801c5.395-0.265,10.487-3.214,15.745-3.154
		c-8.805,3.361-20.263,4.759-28.379,9.028c11.381-0.277,21.253-3.401,32.277-5.478c3.662-0.69,7.789-0.984,11.104-2.974"/>

</svg>
